<svg viewBox="0 0 56 40" xmlns="http://www.w3.org/2000/svg"><g fill="#000" fill-rule="nonzero"><path d="M19.7 28.725a7.065 7.065 0 11.082-5.819h5.477a12.322 12.322 0 100 5.819H19.7zM42.526 13.459h-.904c-2.161.158-4.241.89-6.024 2.122V1.862H30.6v35.283h5.025v-1.287a12.322 12.322 0 106.9-22.4zm7.064 13.198v.22a7.01 7.01 0 01-.191.862 6.996 6.996 0 01-.343.89v.11a7.106 7.106 0 01-4.942 3.874l-.671.11h-.15a6.955 6.955 0 01-.767 0 7.065 7.065 0 01-.959-.069h-.219a6.996 6.996 0 01-1.794-.547h-.136a7.092 7.092 0 01-1.589-1.068c-.481-.439-.9-.94-1.246-1.493a7.065 7.065 0 01-.451-.876 7.024 7.024 0 01.082-5.819 7.078 7.078 0 015.668-4.011c.242-.013.484-.013.726 0a7.078 7.078 0 016.982 6.873c.021.314.021.63 0 .944z"/></g></svg>