<svg viewBox="0 0 123 109" version="1.1" xmlns="http://www.w3.org/2000/svg" xmlns:xlink="http://www.w3.org/1999/xlink">
    <defs>
        <linearGradient x1="0%" y1="89.2774347%" x2="100%" y2="18.5068225%" id="linearGradient-1">
            <stop stop-color="#5414C9" offset="0%"></stop>
            <stop stop-color="#FF1B6B" offset="100%"></stop>
        </linearGradient>
        <path d="M2.79,41.59 L61.44,0 L120.39,41.59 L2.79,41.59 L2.79,41.59 Z M0,102.28 L9.08,102.28 L9.08,95.95 L10.4,95.95 L10.4,92.93 L14.25,92.93 L14.25,56.7 L6.38,56.7 L6.38,48.02 L116.49,48.02 L116.49,56.7 L108.63,56.7 L108.63,92.93 L112.48,92.93 L112.48,95.95 L113.8,95.95 L113.8,102.28 L122.88,102.28 L122.88,108.91 L0,108.91 L0,102.28 L0,102.28 Z M32.59,95.95 L37.03,95.95 L37.03,92.93 L40.88,92.93 L40.88,56.7 L28.74,56.7 L28.74,92.93 L32.59,92.93 L32.59,95.95 L32.59,95.95 L32.59,95.95 Z M59.22,95.95 L63.67,95.95 L63.67,92.93 L67.51,92.93 L67.51,56.7 L55.37,56.7 L55.37,92.93 L59.22,92.93 L59.22,95.95 L59.22,95.95 L59.22,95.95 Z M85.85,95.95 L90.3,95.95 L90.3,92.93 L94.15,92.93 L94.15,56.7 L82,56.7 L82,92.93 L85.85,92.93 L85.85,95.95 L85.85,95.95 L85.85,95.95 Z M41.69,31.1 L61.53,15.88 L81.48,31.1 L41.69,31.1 L41.69,31.1 Z" id="path-2"></path>
    </defs>
    <g id="Page-1" stroke="none" stroke-width="1" fill="none" fill-rule="evenodd">
        <g id="Financial-services_Bank" transform="translate(0.002553, 0.019766)" fill-rule="nonzero">
            <g id="Shape">
                <use fill="#000000" xlink:href="#path-2"></use>
                <use fill="url(#linearGradient-1)" xlink:href="#path-2"></use>
            </g>
        </g>
    </g>
</svg>