<svg viewBox="0 0 79 123" version="1.1" xmlns="http://www.w3.org/2000/svg" xmlns:xlink="http://www.w3.org/1999/xlink">
    <defs>
        <linearGradient x1="29.8466321%" y1="100%" x2="77.476064%" y2="-7.70004316%" id="linearGradient-1">
            <stop stop-color="#5414C9" offset="0%"></stop>
            <stop stop-color="#FF1B6B" offset="100%"></stop>
        </linearGradient>
    </defs>
    <g id="Page-1" stroke="none" stroke-width="1" fill="none" fill-rule="evenodd">
        <g id="Strategy_Chess" transform="translate(0.002553, 0.022706)" fill="url(#linearGradient-1)" fill-rule="nonzero">
            <path d="M49.78,11.8870598 C55.77,19.7670598 62.52,27.5270598 70.09,35.1770598 C82.6,38.3270598 78.16,49.4870598 71.27,49.4070598 C64.46,49.3270598 65.69,45.7670598 61.11,44.5470598 C59.39,44.0870598 57.54,44.1570598 55.15,44.0770598 C40.16,43.5670598 38.89,48.9270598 39.2,39.3670598 C39.41,32.9570598 33.74,34.3970598 34.1,42.1270598 C34.7,55.0470598 42.46,63.5570598 51.58,71.5270598 C61.1,79.8470598 60.62,85.7970598 49.88,93.8070598 L13.64,93.8070598 C-10.43,67.0570598 -2.33,7.41705981 35.86,5.86705981 L36.92,5.87705981 L42.39,1.39705981 C44.88,-0.632940187 44.51,-0.512940187 44.32,2.16705981 L44.06,5.93705981 L52.46,5.99705981 C55.5,6.01705981 56.12,5.30705981 53.52,7.98705981 L49.78,11.8870598 L49.78,11.8870598 L49.78,11.8870598 Z M11.02,96.7470598 L51.86,96.7470598 L51.86,101.12706 L56.12,101.12706 L56.12,107.39706 L58.29,107.39706 L58.29,112.40706 L61.43,112.40706 L61.43,117.61706 L63.52,117.61706 L63.52,122.86706 L0,122.86706 L0,117.61706 L2.09,117.61706 L2.09,112.40706 L5.23,112.40706 L5.23,107.39706 L7.4,107.39706 L7.4,101.12706 L11.02,101.12706 L11.02,96.7470598 L11.02,96.7470598 Z" id="Shape"></path>
        </g>
    </g>
</svg>