<svg viewBox="0 0 162 101" version="1.1" xmlns="http://www.w3.org/2000/svg" xmlns:xlink="http://www.w3.org/1999/xlink">
    <defs>
        <linearGradient x1="0%" y1="69.4349185%" x2="111.123367%" y2="20.8699789%" id="linearGradient-1">
            <stop stop-color="#5414C9" offset="0%"></stop>
            <stop stop-color="#FF1B6B" offset="100%"></stop>
        </linearGradient>
        <path d="M62.639207,80.8752551 L62.8368838,81.0730667 C67.2349506,85.703987 67.1295827,93.0027635 62.5996717,97.5046202 C62.5996717,97.5046202 62.4547087,97.6760569 62.3888164,97.7156193 C57.7962343,102.1112 50.5424345,102.052756 46.0211772,97.5837448 C33.2907911,85.8996707 14.9332054,71.2088596 3.7183415,59.0104752 C1.32130324,56.7630901 -0.0267235153,53.6146004 0.0004015992,50.3277152 C0.0283543678,47.0408301 1.42894672,43.9154009 3.86330449,41.7085505 C10.9928478,32.8597765 36.0714448,12.4983652 46.0343556,3.46496698 C50.159067,-0.547443116 56.5779725,-0.98797252 61.2114809,2.42336108 C65.8449893,5.83469467 67.3350243,12.0980331 64.7345811,17.2326571 C64.5969643,17.5179023 64.3991279,17.7698658 64.1547292,17.9711538 L28.5729048,50.6496366 C34.2659967,56.1751751 39.2342736,60.2896572 44.2025506,64.4041393 C50.6459749,69.5515138 56.8050069,75.045596 62.6523855,80.8620676 L62.639207,80.8752551 Z M99.3016646,80.8752551 L99.1039878,81.0730667 C94.7059211,85.703987 94.811289,93.0027635 99.3412,97.5046202 C99.3412,97.5046202 99.486163,97.6760569 99.5520553,97.7156193 C104.151338,102.145552 111.444772,102.086978 115.972408,97.5837448 C128.702794,85.8996707 147.06038,71.2088596 158.275244,59.0104752 C160.673959,56.7649215 162.024361,53.6174843 161.999667,50.3306062 C161.97429,47.0437281 160.576101,43.9172547 158.143459,41.7085505 C151.013916,32.8597765 125.935319,12.4983652 115.972408,3.46496698 C111.867348,-0.658299646 105.367872,-1.16219586 100.677137,2.27914387 C95.9864016,5.72048361 94.5115221,12.0747355 97.2062905,17.2326571 C97.3437033,17.5144068 97.5364281,17.7655685 97.772964,17.9711538 L133.354788,50.6496366 C127.661697,56.1751751 122.680241,60.2896572 117.725143,64.4041393 C111.281718,69.5515138 105.122686,75.045596 99.2753077,80.8620676 L99.3016646,80.8752551 Z" id="path-2"></path>
    </defs>
    <g id="Page-1" stroke="none" stroke-width="1" fill="none" fill-rule="evenodd">
        <g id="embed-code" fill-rule="nonzero">
            <g id="Shape">
                <use fill="#000000" xlink:href="#path-2"></use>
                <use fill="url(#linearGradient-1)" xlink:href="#path-2"></use>
            </g>
        </g>
    </g>
</svg>