<svg viewBox="0 0 162 125" version="1.1" xmlns="http://www.w3.org/2000/svg" xmlns:xlink="http://www.w3.org/1999/xlink">
    <defs>
        <linearGradient x1="0%" y1="79.768709%" x2="107.970579%" y2="13.8414828%" id="linearGradient-1">
            <stop stop-color="#5414C9" offset="0%"></stop>
            <stop stop-color="#FF1B6B" offset="100%"></stop>
        </linearGradient>
        <path d="M87.8115355,12.720095 C86.768687,11.6802443 85.5465371,11.1675493 84.1305835,11.1675493 C82.7159483,11.1675493 81.4766594,11.6802443 80.4509499,12.720095 L74.8411897,18.2953247 C73.3369038,17.325148 71.745604,16.4772293 70.0817926,15.7187036 C68.4192996,14.9601779 66.7198916,14.3094496 65.0033445,13.7441705 L65.0033445,5.16770292 C65.0033445,3.72164003 64.5089473,2.504318 63.4990586,1.49864699 C62.4931251,0.492975985 61.2722936,0 59.8207434,0 L49.0270636,0 C47.6467066,0 46.445651,0.492975985 45.4014841,1.49864699 C44.3757747,2.504318 43.8616016,3.72164003 43.8616016,5.16770292 L43.8616016,13.0198244 C42.0580406,13.4418119 40.3058969,13.9715967 38.623628,14.6249542 C36.9268568,15.2769971 35.3170995,16.0197476 33.7943561,16.8479473 L27.5834089,10.7429327 C26.6104352,9.72017182 25.4252003,9.19038696 23.9921076,9.19038696 C22.5748356,9.19038696 21.3553225,9.72017182 20.3111556,10.7429327 L12.7567663,18.2953247 C11.7139178,19.3351754 11.1997447,20.5538121 11.1997447,21.9630661 C11.1997447,23.3749493 11.7139178,24.6106758 12.7567663,25.6334366 L18.3493875,31.2270708 C17.3764138,32.7257178 16.527369,34.3137577 15.7666565,35.9701571 C15.0046256,37.6291856 14.3520213,39.325023 13.7837941,41.035321 L5.18523788,41.035321 C3.7323693,41.035321 2.5115378,41.528297 1.5042859,42.533968 C0.495715597,43.5409536 0,44.7582756 0,46.2056531 L0,56.9683048 C0,58.3420645 0.495715597,59.5436113 1.5029675,60.5847766 C2.51021941,61.6062229 3.7323693,62.1189179 5.18391949,62.1189179 L13.0560414,62.1189179 C13.4805638,63.9159797 14.0105576,65.6630866 14.6671171,67.3392049 C15.3236766,69.0337277 16.0659316,70.6743518 16.8965189,72.2610771 L10.7739039,78.3476873 C9.74687609,79.3191786 9.21688229,80.5010064 9.21688229,81.9312941 C9.21688229,83.3418627 9.74687609,84.5604993 10.7739039,85.6016646 L18.3480691,93.2408205 C19.3909176,94.2109972 20.6117491,94.6895126 22.0290211,94.6895126 C23.4423379,94.6895126 24.6803085,94.2123118 25.7086546,93.2408205 L31.3170965,87.5604225 C32.820064,88.5292846 34.4140006,89.3758887 36.0764936,90.1370437 C37.740305,90.8929402 39.4383946,91.5476123 41.1549417,92.1115768 L41.1549417,100.68673 C41.1549417,102.132793 41.6506573,103.3488 42.6579092,104.353156 C43.6664795,105.361457 44.8886294,105.855747 46.3388612,105.855747 L57.1312226,105.855747 C58.5115796,105.855747 59.7139536,105.361457 60.7581205,104.353156 C61.7825115,103.3488 62.2966846,102.132793 62.2966846,100.68673 L62.2966846,92.8346082 C64.101564,92.4126208 65.8523893,91.8828359 67.5333398,91.2281638 C69.2327478,90.5761209 70.8794201,89.8333705 72.4694015,89.0051708 L78.573559,95.1115 C79.5478511,96.1342608 80.7489067,96.6640457 82.2030936,96.6640457 C83.6691462,96.6640457 84.8728385,96.1355754 85.848449,95.1115 L93.5096281,87.5604225 C94.4826018,86.5179426 94.9624967,85.3006206 94.9624967,83.890052 C94.9624967,82.4794834 94.4839202,81.2437569 93.5096281,80.220996 L87.8128539,74.6273619 C88.7858276,73.1274003 89.6348724,71.5406749 90.3969033,69.882961 C91.154979,68.2252471 91.8102201,66.5294097 92.3771289,64.8191117 L100.977004,64.8191117 C102.427235,64.8191117 103.646748,64.3221919 104.654,63.3191501 C105.663889,62.3121645 106.159605,61.096157 106.159605,59.6487796 L106.159605,48.8874425 C106.159605,47.5110535 105.663889,46.3134505 104.654,45.269656 C103.646748,44.2468952 102.427235,43.7355148 100.977004,43.7355148 L93.1022448,43.7355148 C92.6777224,42.0068123 92.1464102,40.2781099 91.4911691,38.5678118 C90.8372464,36.8377948 90.0923546,35.2155751 89.2617673,33.6958945 L95.3857007,27.5054307 C96.4114101,26.535254 96.9427223,25.3521116 96.9427223,23.9244532 C96.9427223,22.5112554 96.4127285,21.2952479 95.3857007,20.2540827 L87.8115355,12.720095 L87.8115355,12.720095 Z M147.551857,70.5271163 C146.88475,70.0604324 146.175455,69.8974216 145.406832,70.0328257 C144.638209,70.1656006 144.013291,70.5599814 143.559764,71.2212265 L141.044271,74.7732828 C140.137217,74.3894188 139.195885,74.0818018 138.217638,73.8254543 C137.245982,73.5704214 136.261143,73.3745456 135.276304,73.2325685 L134.464174,68.5815044 C134.325743,67.7980012 133.943409,67.1840818 133.298715,66.7331731 C132.657976,66.2822644 131.948681,66.1297705 131.161601,66.2678038 L125.30662,67.2853062 C124.560409,67.4154519 123.955267,67.7980012 123.483283,68.4408419 C123.021845,69.0810534 122.857046,69.7909388 122.996796,70.5770712 L123.740369,74.8337545 C122.800355,75.2320791 121.901212,75.685617 121.054804,76.198312 C120.192575,76.7136362 119.389674,77.2657693 118.644782,77.8599697 L114.696196,75.1347985 C114.068641,74.6720584 113.379122,74.4985308 112.599952,74.6313057 C111.831329,74.7667098 111.220914,75.166349 110.751566,75.8197065 L107.371207,80.6298375 C106.904496,81.2923972 106.739697,82.0022826 106.874173,82.7634375 C107.008649,83.5324801 107.404167,84.1529725 108.067319,84.6091396 L111.630934,87.1160868 C111.245963,88.0192188 110.936141,88.9591597 110.680373,89.9345949 C110.423286,90.9047716 110.228164,91.8854652 110.084459,92.8674733 L105.419986,93.6772685 C104.634224,93.8139872 104.018535,94.1978512 103.566326,94.8393773 C103.112799,95.4782741 102.962503,96.1868449 103.099615,96.9703481 L104.118733,102.808498 C104.249254,103.552563 104.630269,104.157281 105.278918,104.626594 C105.920976,105.086705 106.632908,105.249715 107.419988,105.111682 L111.690261,104.370246 C112.091053,105.307558 112.54458,106.202802 113.058753,107.050721 C113.575563,107.907842 114.133243,108.725525 114.735748,109.507713 L111.992173,113.38842 C111.526781,114.012857 111.352753,114.701708 111.487229,115.478638 C111.621705,116.245052 112.022496,116.855027 112.679056,117.321711 L117.510964,120.74888 C118.168842,121.176126 118.876819,121.322047 119.644124,121.187958 C120.412746,121.055183 121.040301,120.676577 121.503057,120.05477 L124.006684,116.444871 C124.913739,116.83005 125.856389,117.138982 126.833318,117.3927 C127.806292,117.647733 128.789813,117.843609 129.773333,117.984271 L130.5881,122.637964 C130.725213,123.422782 131.110184,124.035387 131.752241,124.483666 C132.392979,124.93589 133.103593,125.088384 133.889355,124.951665 L139.7417,123.932848 C140.491865,123.801388 141.097007,123.421468 141.568992,122.777312 C142.029111,122.135786 142.19391,121.429845 142.05416,120.642398 L141.309268,116.38177 C142.249282,115.983446 143.149744,115.532537 143.998789,115.018528 C144.857063,114.501889 145.678421,113.948441 146.464183,113.348982 L150.35476,116.08467 C150.980996,116.54741 151.683699,116.719623 152.469461,116.58159 C153.26577,116.444871 153.868276,116.043918 154.29939,115.397133 L157.739076,110.579114 C158.166235,109.921813 158.312577,109.217186 158.176783,108.452087 C158.043625,107.685674 157.666565,107.059923 157.042965,106.598498 L153.420022,104.102067 C153.80763,103.197621 154.116133,102.25768 154.371902,101.283559 C154.62767,100.313383 154.822792,99.332689 154.967815,98.3493663 L159.630969,97.539571 C160.41805,97.4028524 161.032421,97.0216176 161.483311,96.3787769 C161.936838,95.7372508 162.088453,95.0326238 161.95134,94.2478061 L160.929586,88.4096558 C160.799065,87.6642761 160.416731,87.0621881 159.770719,86.5902458 C159.128662,86.1288203 158.41673,85.9684387 157.62965,86.1051574 L153.359376,86.8479079 C152.965177,85.9487197 152.512968,85.0626775 151.99484,84.1963544 C151.474075,83.3195144 150.919032,82.5097192 150.324437,81.7643395 L153.058783,77.8271047 C153.524175,77.2026684 153.696885,76.5151312 153.559772,75.7368865 C153.426614,74.9704732 153.025823,74.3631267 152.367945,73.8951282 L147.551857,70.5271163 L147.551857,70.5271163 Z M130.731805,85.3558339 C132.143803,85.1086886 133.52416,85.1428683 134.880786,85.4544291 C136.232139,85.7778214 137.455607,86.318123 138.541962,87.0727049 C139.629636,87.8378037 140.549874,88.802722 141.311905,89.9622015 C142.067344,91.1308832 142.564378,92.4139354 142.813554,93.8218748 C143.060094,95.2311288 143.024497,96.6075178 142.713356,97.9628731 C142.389032,99.3077116 141.849809,100.525034 141.087778,101.61221 C140.320474,102.694128 139.355411,103.613035 138.192588,104.372875 C137.020537,105.126143 135.733786,105.623063 134.320469,105.870208 C132.909789,106.114724 131.529432,106.07923 130.17017,105.768983 C128.818817,105.445591 127.599304,104.907919 126.508994,104.149393 C125.425275,103.384294 124.5024,102.422005 123.740369,101.262526 C122.986249,100.093844 122.485259,98.8094772 122.240038,97.4015378 C121.992181,95.994913 122.026459,94.618524 122.338918,93.2631687 C122.663242,91.915701 123.205102,90.698379 123.961859,89.6112026 C124.730482,88.5319139 125.696864,87.611692 126.859686,86.8518517 C128.034374,86.0985844 129.321125,85.6016646 130.731805,85.3558339 L130.731805,85.3558339 Z M53.0811207,31.844934 C55.9829027,31.844934 58.7238408,32.3931233 61.3237109,33.4855581 C63.9090787,34.5977119 66.156938,36.0963589 68.0672888,37.9828137 C69.9591821,39.8876729 71.4621496,42.1316996 72.5775097,44.7043769 C73.6757307,47.2980879 74.2228636,50.0337759 74.2228636,52.9259017 C74.2228636,55.8193421 73.6757307,58.5550302 72.5775097,61.1474265 C71.4621496,63.7227331 69.9591821,65.9667598 68.0672888,67.871619 C66.156938,69.7593884 63.9090787,71.2567207 61.3237109,72.3688746 C58.7238408,73.4639386 55.9829027,74.0094986 53.0811207,74.0094986 C50.1793387,74.0094986 47.4357638,73.4639386 44.8345753,72.3688746 C42.2531627,71.2567207 40.003985,69.7593884 38.0949526,67.871619 C36.2004225,65.9667598 34.697455,63.7240477 33.5820949,61.1474265 C32.4865107,58.5550302 31.936741,55.8193421 31.936741,52.9259017 C31.936741,50.0337759 32.4865107,47.2980879 33.5820949,44.7043769 C34.697455,42.130385 36.2004225,39.8876729 38.0949526,37.9828137 C40.003985,36.0963589 42.2531627,34.5963973 44.8345753,33.4855581 C47.4344454,32.3931233 50.1793387,31.844934 53.0811207,31.844934 L53.0811207,31.844934 Z" id="path-2"></path>
    </defs>
    <g id="Page-1" stroke="none" stroke-width="1" fill="none" fill-rule="evenodd">
        <g id="Operations_Gear" fill-rule="nonzero">
            <g id="Shape">
                <use fill="#000000" xlink:href="#path-2"></use>
                <use fill="url(#linearGradient-1)" xlink:href="#path-2"></use>
            </g>
        </g>
    </g>
</svg>