<svg viewBox="0 0 123 103" version="1.1" xmlns="http://www.w3.org/2000/svg" xmlns:xlink="http://www.w3.org/1999/xlink">
    <defs>
        <linearGradient x1="0%" y1="84.7029327%" x2="110.604108%" y2="10.218304%" id="linearGradient-1">
            <stop stop-color="#5414C9" offset="0%"></stop>
            <stop stop-color="#FF1B6B" offset="100%"></stop>
        </linearGradient>
        <path d="M29.83,89.5433666 L29.83,52.6233666 L46.44,52.6233666 C53.48,53.8833666 60.52,57.7033666 67.56,62.1333666 L80.46,62.1333666 C86.3,62.4833666 89.36,68.4033666 83.68,72.2933666 C79.16,75.6133666 73.19,75.4233666 67.07,74.8733666 C62.85,74.6633666 62.67,80.3333666 67.07,80.3533666 C68.6,80.4733666 70.26,80.1133666 71.71,80.1133666 C79.35,80.1033666 85.63,78.6433666 89.48,72.6133666 L91.41,68.1033666 L110.6,58.5933666 C120.2,55.4333666 127.02,65.4733666 119.95,72.4633666 C106.05,82.5733666 91.8,90.8933666 77.22,97.6133666 C66.63,104.053367 56.04,103.833367 45.46,97.6133666 L29.83,89.5433666 L29.83,89.5433666 Z M76.08,7.79336662 C79.71,4.00336662 82.25,0.73336662 87.85,0.09336662 C98.35,-1.11663338 108.01,9.64336662 102.71,20.2333666 C101.2,23.2533666 98.13,26.8333666 94.73,30.3533666 C91,34.2133666 86.87,38.0033666 83.97,40.8733666 L76.08,48.7033666 L69.56,42.4233666 C61.72,34.8733666 48.93,25.3633666 48.51,13.5833666 C48.21,5.33336662 54.73,0.04336662 62.21,0.14336662 C68.91,0.22336662 71.72,3.55336662 76.08,7.79336662 L76.08,7.79336662 L76.08,7.79336662 Z M0,49.0733666 L24.83,49.0733666 L24.83,93.2533666 L0,93.2533666 L0,49.0733666 L0,49.0733666 Z" id="path-2"></path>
    </defs>
    <g id="Page-1" stroke="none" stroke-width="1" fill="none" fill-rule="evenodd">
        <g id="Nonprofit_Heart-hands" transform="translate(0.002553, 0.026399)" fill-rule="nonzero">
            <g id="Shape">
                <use fill="#000000" xlink:href="#path-2"></use>
                <use fill="url(#linearGradient-1)" xlink:href="#path-2"></use>
            </g>
        </g>
    </g>
</svg>