<svg viewBox="0 0 123 120" version="1.1" xmlns="http://www.w3.org/2000/svg" xmlns:xlink="http://www.w3.org/1999/xlink">
    <defs>
        <linearGradient x1="0%" y1="97.5250637%" x2="108.499227%" y2="2.47493634%" id="linearGradient-1">
            <stop stop-color="#5414C9" offset="0%"></stop>
            <stop stop-color="#FF1B6B" offset="100%"></stop>
        </linearGradient>
        <path d="M49.988,0 L50.004,0 L50.004,0.007 C63.803,0.011 76.298,5.608 85.34,14.652 C94.367,23.683 99.959,36.167 99.968,49.955 L99.975,49.955 L99.975,49.988 L99.975,50.028 L99.968,50.028 C99.963,55.585 99.051,60.933 97.374,65.92 C97.093,66.757 96.799,67.561 96.497,68.329 L96.497,68.336 C95.051,71.996 93.182,75.456 90.95,78.643 L120.032,104.782 L120.05,104.798 L120.207,104.944 L120.218,104.955 C121.86,106.518 122.754,108.611 122.867,110.735 C122.977,112.835 122.324,114.983 120.888,116.706 L120.877,116.722 L120.702,116.925 L120.667,116.96 L120.521,117.12 L120.505,117.141 C118.94,118.783 116.851,119.675 114.725,119.787 C112.628,119.898 110.478,119.247 108.754,117.809 L108.739,117.798 L108.535,117.623 L108.506,117.599 L78.761,90.865 C77.881,91.485 76.983,92.074 76.074,92.63 C74.841,93.385 73.564,94.096 72.261,94.745 C65.562,98.087 57.992,99.967 49.989,99.967 L49.989,99.974 L49.973,99.974 L49.973,99.967 C36.174,99.963 23.677,94.366 14.635,85.322 C5.605,76.291 0.016,63.805 0.007,50.021 L0,50.021 L0,49.988 L0,49.972 L0.007,49.972 C0.011,36.173 5.608,23.676 14.652,14.634 C23.683,5.608 36.167,0.016 49.955,0.007 L49.955,0 L49.988,0 L49.988,0 Z M50.2244417,18.21 L50.2244417,18.2157766 L50.2112379,18.2157766 L50.1840049,18.2157766 L50.1840049,18.21 C41.3654679,18.2157766 33.372173,21.7997568 27.5855754,27.5838041 C21.7998031,33.3678513 18.2124757,41.3692955 18.21,50.1984468 L18.2157767,50.1984468 L18.2157767,50.2116505 L18.2157767,50.2388831 L18.21,50.2388831 C18.2157767,59.0573064 21.7973274,67.0463721 27.5839249,72.8345455 C33.3680468,78.6210684 41.3695941,82.2083495 50.198034,82.21 L50.198034,82.2042234 L50.2112379,82.2042234 L50.2384709,82.2042234 L50.2384709,82.21 C59.0570079,82.2042234 67.0470018,78.6218936 72.8352498,72.8361959 C78.6210221,67.0521487 82.2083495,59.0531802 82.21,50.2248542 L82.2050485,50.2248542 L82.2050485,50.2116505 L82.2050485,50.1844178 L82.21,50.1844178 C82.2050485,41.3659945 78.6201969,33.3728027 72.8369003,27.5862798 C67.0527785,21.7997568 59.0537069,18.2124757 50.2244417,18.21 L50.2244417,18.21 Z" id="path-2"></path>
    </defs>
    <g id="Page-1" stroke="none" stroke-width="1" fill="none" fill-rule="evenodd">
        <g id="Dilligence_Mag-Glass" transform="translate(0.002553, 0.019766)" fill-rule="nonzero">
            <g id="Shape">
                <use fill="#000000" xlink:href="#path-2"></use>
                <use fill="url(#linearGradient-1)" xlink:href="#path-2"></use>
            </g>
        </g>
    </g>
</svg>