<svg viewBox="0 0 123 123" version="1.1" xmlns="http://www.w3.org/2000/svg" xmlns:xlink="http://www.w3.org/1999/xlink">
    <defs>
        <linearGradient x1="0%" y1="99.815396%" x2="115.90031%" y2="0.18460395%" id="linearGradient-1">
            <stop stop-color="#5414C9" offset="0%"></stop>
            <stop stop-color="#FF1B6B" offset="100%"></stop>
        </linearGradient>
        <path d="M108.993031,47.0790098 C116.676031,47.0200098 122.891031,53.1990098 122.875062,60.8840098 C122.857031,68.5670098 116.615031,74.8430098 108.933031,74.9030098 L75.2400308,75.1380098 L75.0050308,108.86801 C74.9420308,116.48701 68.6670308,122.65701 60.9910308,122.64802 C53.3130308,122.63801 47.1430308,116.45101 47.2060308,108.83001 L47.4390308,75.3330098 L13.8810308,75.5680098 C6.20003082,75.6280098 -0.0159691812,69.4480098 0,61.7640098 C0.0180308188,54.0810098 6.26103082,47.8050098 13.9430308,47.7460098 L47.6350308,47.5100098 L47.8710308,13.7800098 C47.9350308,6.16100983 54.2090308,-0.00899016648 61.8850308,0 C69.5630308,0.00900983352 75.7330308,6.19700983 75.6690308,13.8180098 L75.4360308,47.3150098 L108.993031,47.0790098 L108.993031,47.0790098 Z" id="path-2"></path>
    </defs>
    <g id="Page-1" stroke="none" stroke-width="1" fill="none" fill-rule="evenodd">
        <g id="And-More_Plus---if-needed" transform="translate(0.002522, 0.019756)" fill-rule="nonzero">
            <g id="Path">
                <use fill="#000000" xlink:href="#path-2"></use>
                <use fill="url(#linearGradient-1)" xlink:href="#path-2"></use>
            </g>
        </g>
    </g>
</svg>