<svg viewBox="0 0 123 121" version="1.1" xmlns="http://www.w3.org/2000/svg" xmlns:xlink="http://www.w3.org/1999/xlink">
    <defs>
        <linearGradient x1="0%" y1="103.480056%" x2="100%" y2="1.61279662%" id="linearGradient-1">
            <stop stop-color="#5414C9" offset="0%"></stop>
            <stop stop-color="#FF1B6B" offset="100%"></stop>
        </linearGradient>
        <path d="M15.3666344,86.1737172 C16.5078604,85.2843912 18.1596348,85.4942321 19.0505919,86.6333689 C19.9415491,87.7725056 19.7313232,89.4212561 18.5900972,90.3105822 L5.34586936,100.582798 L5.24576182,114.42231 L21.5132375,113.512999 L30.3427227,99.5036154 C31.1135508,98.2845393 32.735293,97.9148195 33.956605,98.6842364 C35.177917,99.4536533 35.5483149,101.072427 34.7774869,102.291503 L25.2672703,117.370076 C24.8368079,118.099523 24.0559691,118.609137 23.1449904,118.659099 L2.75308401,119.808228 L2.75308401,119.808228 C2.70303024,119.808228 2.65297647,119.808228 2.6029227,119.808228 C1.16137408,119.798236 -0.00988416501,118.629122 6.28920935e-05,117.18022 L0.130266395,99.4836306 C0.070201869,98.6342742 0.420578268,97.7749255 1.14135257,97.2153496 L15.3666344,86.1737172 L15.3666344,86.1737172 Z M40.1232296,53.8881841 C46.7303275,34.1731247 55.6398987,20.1937187 68.1733631,11.3903901 C81.1773328,2.24731897 97.8952924,-1.21006093 119.798823,0.368742612 C121.310447,0.478659314 122.471694,1.71772032 122.491716,3.19659958 C124.613996,26.8686602 120.009049,43.6559384 110.198509,56.3762985 C100.758368,68.6070297 86.5931509,76.8807597 69.0142664,83.8254968 L69.0142664,106.937981 C69.0142664,108.067126 68.3635674,109.056376 67.4125457,109.52602 L49.5133171,120.567653 C48.1518546,121.407016 46.3699403,120.987334 45.5290369,119.628364 C45.3088003,119.268637 45.1686498,118.878932 45.118596,118.489228 L45.118596,118.489228 C41.1543373,88.2521421 36.9398098,86.8032401 12.1732038,78.2497222 C9.2100205,77.2304946 6.0165899,76.1213352 3.85426698,75.3619107 C2.34264308,74.832312 1.5517935,73.1735691 2.08236347,71.674705 C2.19248177,71.3549473 2.36266459,71.0651669 2.56287968,70.8053638 L14.3655589,54.0180856 C14.9561934,53.1787217 15.9172259,52.7390549 16.8682475,52.7890171 L16.8682475,52.7890171 L40.1232296,53.8881841 L40.1232296,53.8881841 Z M90.7976677,31.6150633 C89.195947,30.0162749 86.9935811,29.037017 84.550957,29.037017 C82.1183437,29.037017 79.9059671,30.0262673 78.3042464,31.6150633 C76.7025257,33.2138517 75.7214718,35.4121857 75.7214718,37.850338 C75.7214718,40.2784979 76.7125364,42.4868244 78.3042464,44.0856127 C79.9059671,45.6844011 82.108333,46.663659 84.550957,46.663659 C86.9835703,46.663659 89.195947,45.6744087 90.7976677,44.0856127 C92.3993884,42.4868244 93.3804423,40.2884903 93.3804423,37.850338 C93.3804423,35.4121857 92.3893776,33.2138517 90.7976677,31.6150633 L90.7976677,31.6150633 Z" id="path-2"></path>
    </defs>
    <g id="Page-1" stroke="none" stroke-width="1" fill="none" fill-rule="evenodd">
        <g id="Startups_Rocket" fill-rule="nonzero">
            <g id="Shape">
                <use fill="#000000" xlink:href="#path-2"></use>
                <use fill="url(#linearGradient-1)" xlink:href="#path-2"></use>
            </g>
        </g>
    </g>
</svg>