<svg viewBox="0 0 89 123" version="1.1" xmlns="http://www.w3.org/2000/svg" xmlns:xlink="http://www.w3.org/1999/xlink">
    <defs>
        <linearGradient x1="24.0604108%" y1="109.18463%" x2="80.8919079%" y2="-8.04427852%" id="linearGradient-1">
            <stop stop-color="#5414C9" offset="0%"></stop>
            <stop stop-color="#FF1B6B" offset="100%"></stop>
        </linearGradient>
        <path d="M36.192553,122.880798 L36.192553,96.3407982 L5.13255297,96.3407982 C-0.067447035,96.8207982 -1.12744703,92.7107982 1.10255297,89.3007982 L20.942553,66.0407982 L20.372553,65.4707982 L9.75255297,65.4707982 C5.90255297,66.0407982 4.48255297,61.8707982 6.81255297,58.9407982 L28.182553,33.8407982 L21.942553,33.8407982 C18.032553,33.9407982 17.072553,30.3507982 19.572553,26.9607982 L39.042553,3.8407982 C40.372553,2.2607982 41.792553,-0.0492017965 44.102553,0 C46.092553,0.0407982035 47.292553,1.9307982 48.472553,3.3107982 L69.172553,27.4507982 C71.422553,30.6707982 69.502553,34.0607982 65.582553,34.0607982 L60.002553,34.0607982 L81.222553,58.9307982 C83.772553,61.4507982 82.472553,65.4807982 79.542553,66.0407982 L67.212553,66.0407982 L85.712553,87.7407982 C87.882553,90.2907982 90.982553,95.6507982 85.172553,96.3407982 L51.832553,96.3407982 L51.832553,122.880798 L36.192553,122.880798 L36.192553,122.880798 Z" id="path-2"></path>
    </defs>
    <g id="Page-1" stroke="none" stroke-width="1" fill="none" fill-rule="evenodd">
        <g id="Sustainability_Tree" transform="translate(0.000000, 0.018968)" fill-rule="nonzero">
            <g id="Path">
                <use fill="#000000" xlink:href="#path-2"></use>
                <use fill="url(#linearGradient-1)" xlink:href="#path-2"></use>
            </g>
        </g>
    </g>
</svg>