<svg viewBox="0 0 5140 884" xmlns="http://www.w3.org/2000/svg" xmlns:xlink="http://www.w3.org/1999/xlink"><defs><linearGradient x1="56.979%" y1="63.983%" x2="45.558%" y2="82.879%" id="b"><stop stop-color="#FF1B6B" offset="0%"/><stop stop-color="#5313C8" offset="100%"/></linearGradient><path d="M608.894 1.12c26.82 4.81 47.86 27.58 51.17 55.38 11.55 96.01-15.24 197.59-79.63 301.92a765.679 765.679 0 01-22.47 34.35c1.69 14.663 3.555 29.46 5.39 43.899l.55 4.32.28 2.13c17.58 137.51 35.76 279.56-71.33 375.72-13.2 11.88-27.85 22.37-43.54 31.16a250.503 250.503 0 01-49.57 21.22 251.475 251.475 0 01-73.81 11.09c-23.46 0-46.72-3.29-69.13-9.79-52.87-15.28-97.77-45.54-130.42-87.8-29.06 18.92-51.71 32.73-66.03 41.23-9.34 5.52-20.24 7.02-30.72 4.22-10.49-2.8-19.19-9.57-24.5-19.05-10.63-19.08-4.25-42.71 14.49-53.82 14.75-8.75 38.11-23.02 67.83-42.46-17.79-46.21-15.26-97.16 7.17-143.49 24.56-50.76 69.71-89.35 123.88-105.89 51.72-15.77 106.93-5.68 149.6 26.89 41.3-40.72 77.34-81.66 107.25-121.81-4.7-48.97-8.13-112.01 4.3-172.83 20.11-98.63 53.02-210.11 129.24-196.59zm-120.43 479.3C453.27 517.802 386.241 582.304 354.029 613.28l-.965.929-6.95 6.68c-18.63 16.013-38.417 32.321-58.877 48.491l-2.673 2.109-.94.7c-5.31 3.87-18.97 14.04-34.6 25.68l-7.737 5.758-1.559 1.16-2.34 1.742-1.56 1.16c-16.636 12.376-33.037 24.556-43.364 32.11 21.9 26.95 50.95 45.78 86.49 56.04 56.07 16.2 117.58 2.27 160.55-36.35 71.15-63.92 62.91-167.5 48.96-279.07zm-221.5 57.64c-8.52 0-16.98 1.26-25.14 3.75-32.99 10.08-60.46 33.53-75.36 64.34-9.47 19.57-12.76 40.61-9.67 60.6l.981-.764c15.115-11.767 40.631-31.854 66.952-52.64l1.737-1.372 1.738-1.373 2.61-2.061 3.55-2.806 1.738-1.373 2.604-2.059 1.733-1.37c26.839-21.22 52.526-41.589 66.817-52.972-12.4-6.44-26.31-9.9-40.29-9.9zm318.15-441.22c-26.55 24.37-47.83 118.69-45.49 156.75.36 5.84 7.96 8.57 11.01 3.72 31.56-50.11 46.36-104.15 44.62-156.78-.17-4.94-6.6-6.94-10.14-3.69z" id="a"/></defs><g fill="none" fill-rule="evenodd"><g fill="#5414C9"><path d="M1016.91 462.44c-51.165-13.15-75.297-21.907-75.297-45.324 0-29.937 30.549-43.338 60.79-43.338 32.641 0 57.945 14.52 67.737 38.805l8.788 21.88 65.003-37.24-7.504-16.982C1114.275 329.964 1064.17 300 1002.404 300c-78.645 0-135.753 49.241-135.753 117.116 0 81.388 74.46 100.72 128.834 114.821 52.03 13.514 76.553 22.578 76.553 46.947 0 41.184-55.741 43.282-66.9 43.282-40.676 0-70.639-17.094-80.152-45.716l-8.007-24.033L851 590.887l6.11 16.311C877.922 662.818 933.272 696 1005.138 696 1087.326 696 1147 646.759 1147 578.884c0-83.038-75.186-102.343-130.09-116.444M1444.391 577.907L1321.868 308H1240l165.778 366.726-4.026 9.869c-11.352 26.7-36.852 70.985-80.443 67.043l-22.396-2.013v73.418l18.901 1.538c3.44.28 6.878.419 10.29.419 60.954 0 115.868-44.313 145.003-117.983L1631 308h-81.03l-105.579 269.907M1939.879 301c-40.145 0-74.204 11.455-100.893 33.64v-26.18H1764V689h74.986V489.202c0-72.783 35.79-114.525 98.157-114.525 51.06 0 79.173 29.337 79.173 82.618V689H2092V457.295C2092 363.781 2030.861 301 1939.879 301M2382.076 205l-75.582 22.354v79.79H2232v74.476h74.494v200.317c0 38.553 10.873 67.482 32.313 85.975 18.763 16.142 44.412 24.088 79.038 24.088 14.33 0 30.194-1.343 47.702-4.057l17.453-2.658v-70.754l-22.332 1.958c-32.145 2.882-61.641 4.673-71.26-4.168-4.879-4.477-7.332-14.688-7.332-30.384V381.62H2483v-74.475h-100.924V205M2822.879 300.495c-40.145 0-74.176 11.47-100.865 33.683V172H2647v517h75.014V488.942c0-72.878 35.762-114.674 98.157-114.674 51.033 0 79.145 29.375 79.145 82.725V689H2975V456.993c0-93.636-61.139-156.498-152.121-156.498M3209.295 461.724c13.76-53.414 58.172-87.997 116.26-87.997 45.615 0 93.915 27.42 108.374 87.997h-224.634zM3325.555 300C3213.518 300 3129 385.031 3129 497.93c0 114.802 83.818 198.07 199.38 198.07 71.01 0 132.957-32.457 165.735-86.794l10.712-17.767-66.06-39.06-10.236 18.579c-17.507 32.12-54.788 51.175-99.564 51.175-59.85 0-104.626-32.932-119.197-85.842h303.643v-20.594c0-2.35.112-4.588.223-6.939.252-3.19.364-6.24.364-9.401 0-96.67-65.947-199.357-188.445-199.357zM3800.883 462.44c-51.166-13.15-75.27-21.907-75.27-45.324 0-29.937 30.521-43.338 60.79-43.338 32.614 0 57.945 14.52 67.71 38.805l8.815 21.88 65.003-37.24-7.504-16.982c-22.18-50.277-72.285-80.241-134.023-80.241-78.673 0-135.753 49.241-135.753 117.116 0 81.388 74.46 100.72 128.806 114.821 52.058 13.514 76.58 22.578 76.58 46.947 0 41.184-55.768 43.282-66.927 43.282-40.648 0-70.639-17.094-80.152-45.716l-8.007-24.033-65.951 38.47 6.082 16.311c20.812 55.62 76.162 88.802 148.028 88.802 82.216 0 141.89-49.241 141.89-117.116 0-83.038-75.214-102.343-130.117-116.444M4091 690h75V308h-75zM4127.986 172c-26.48 0-47.986 21.145-47.986 47.164 0 26.383 21.505 47.836 47.986 47.836 26.453 0 48.014-21.453 48.014-47.836 0-26.019-21.561-47.164-48.014-47.164M4628.213 357.727V308h-285.426v74.661h177.277L4336 640.217V690h299v-74.69h-190.265l183.478-257.583M4835.295 461.724c13.732-53.414 58.172-87.997 116.26-87.997 45.475 0 93.915 27.42 108.374 87.997h-224.634zM4951.555 300C4839.518 300 4755 385.031 4755 497.93c0 114.802 83.818 198.07 199.24 198.07 71.121 0 133.097-32.457 165.875-86.794l10.712-17.767-66.2-39.06-10.207 18.579c-17.536 32.12-54.677 51.175-99.453 51.175-59.85 0-104.626-32.932-119.337-85.842h303.643v-20.594c0-2.35.252-4.588.363-6.939.224-3.19.364-6.24.364-9.401 0-96.67-66.087-199.357-188.445-199.357z"/></g><g transform="translate(.656 .98)"><mask id="c" fill="#fff"><use xlink:href="#a"/></mask><path fill="url(#b)" mask="url(#c)" d="M-1492.656 1850.02h3648v-4916.04h-3648z"/></g></g></svg>