<svg viewBox="0 0 664 884" xmlns="http://www.w3.org/2000/svg" xmlns:xlink="http://www.w3.org/1999/xlink"><defs><path d="M608.894 1.12c26.82 4.81 47.86 27.58 51.17 55.38 11.55 96.01-15.24 197.59-79.63 301.92a765.679 765.679 0 01-22.47 34.35c1.69 14.663 3.555 29.46 5.39 43.899l.55 4.32.28 2.13c17.58 137.51 35.76 279.56-71.33 375.72-13.2 11.88-27.85 22.37-43.54 31.16a250.503 250.503 0 01-49.57 21.22 251.475 251.475 0 01-73.81 11.09c-23.46 0-46.72-3.29-69.13-9.79-52.87-15.28-97.77-45.54-130.42-87.8-29.06 18.92-51.71 32.73-66.03 41.23-9.34 5.52-20.24 7.02-30.72 4.22-10.49-2.8-19.19-9.57-24.5-19.05-10.63-19.08-4.25-42.71 14.49-53.82 14.75-8.75 38.11-23.02 67.83-42.46-17.79-46.21-15.26-97.16 7.17-143.49 24.56-50.76 69.71-89.35 123.88-105.89 51.72-15.77 106.93-5.68 149.6 26.89 41.3-40.72 77.34-81.66 107.25-121.81-4.7-48.97-8.13-112.01 4.3-172.83 20.11-98.63 53.02-210.11 129.24-196.59zm-120.43 479.3C453.27 517.802 386.241 582.304 354.029 613.28l-.965.929-6.95 6.68c-18.63 16.013-38.417 32.321-58.877 48.491l-2.673 2.109-.94.7c-5.31 3.87-18.97 14.04-34.6 25.68l-7.737 5.758-1.559 1.16-2.34 1.742-1.56 1.16c-16.636 12.376-33.037 24.556-43.364 32.11 21.9 26.95 50.95 45.78 86.49 56.04 56.07 16.2 117.58 2.27 160.55-36.35 71.15-63.92 62.91-167.5 48.96-279.07zm-221.5 57.64c-8.52 0-16.98 1.26-25.14 3.75-32.99 10.08-60.46 33.53-75.36 64.34-9.47 19.57-12.76 40.61-9.67 60.6l.981-.764c15.115-11.767 40.631-31.854 66.952-52.64l1.737-1.372 1.738-1.373 2.61-2.061 3.55-2.806 1.738-1.373 2.604-2.059 1.733-1.37c26.839-21.22 52.526-41.589 66.817-52.972-12.4-6.44-26.31-9.9-40.29-9.9zm318.15-441.22c-26.55 24.37-47.83 118.69-45.49 156.75.36 5.84 7.96 8.57 11.01 3.72 31.56-50.11 46.36-104.15 44.62-156.78-.17-4.94-6.6-6.94-10.14-3.69z" id="a"/></defs><use fill="#FFF" xlink:href="#a" transform="translate(.656 .98)" fill-rule="evenodd"/></svg>